# xmcd
#
# Track frame offsets:
#	150
#	15750
#	29700
#	45450
#	59680
#	75242
#	92162
#	110700
#	125735
#	139255
#	153777
#	169830
#	184205
#	196775
#	212702
#
# Disc length: 3013 seconds
#
# Revision: 7
# Processed by: cddbd v1.5.2PL0 Copyright (c) Steve Scherf et al.
# Submitted via: EZCDAudioConverter 9.1.1.1
#
DISCID=c90bc30f
DTITLE=Various Artist - Hot #1 Country Hits
DYEAR=1992
DGENRE=Country
TTITLE0=Alabama - Down Home
TTITLE1=Mark Chestnutt - Brother Jukebox
TTITLE2=Tanya Tucker - Down To My Last Teardrop
TTITLE3=Clint Black - Where Are You Now
TTITLE4=Dolly Parton and Ricky Van Shelton - Rockin' Years
TTITLE5=George Strait - I've Come To Expect It From You
TTITLE6=Trisha Yearwood - She's In Love With The Boy
TTITLE7=Keith Whitley (Duet with Earl Thomas Conley) - Brotherly Love
TTITLE8=Brooks and Dunn - Brand New Man
TTITLE9=Pam Tillis - Don't Tell Me What To Do
TTITLE10=Doug Stone - I Thought It Was You
TTITLE11=Alan Jackson - I'd Love You All Over Again
TTITLE12=Joe Diffie - If The Devil Danced (In Empty Pockets)
TTITLE13=Paul Overstreet - Daddy's Come Round
TTITLE14=Hal Ketchum - Small Town Saturday Night
EXTD=
EXTT0=
EXTT1=
EXTT2=
EXTT3=
EXTT4=
EXTT5=
EXTT6=
EXTT7=
EXTT8=
EXTT9=
EXTT10=
EXTT11=
EXTT12=
EXTT13=
EXTT14=
PLAYORDER=
